<?xml version="1.0" encoding="utf-8"?>
<!-- Svg Vector Icons : http://www.onlinewebfonts.com/icon -->
<!DOCTYPE svg PUBLIC "-//W3C//DTD SVG 1.1//EN" "http://www.w3.org/Graphics/SVG/1.1/DTD/svg11.dtd">
<svg version="1.1" xmlns="http://www.w3.org/2000/svg" xmlns:xlink="http://www.w3.org/1999/xlink" x="0px" y="0px" viewBox="0 0 1000 1000" enable-background="new 0 0 1000 1000" xml:space="preserve">
<metadata> Svg Vector Icons : http://www.onlinewebfonts.com/icon </metadata>
<g><path d="M684.8,315.2c-12.8-12.8-33.4-12.8-46.2,0L500,453.8L361.4,315.2c-12.8-12.8-33.4-12.8-46.2,0c-12.8,12.8-12.8,33.4,0,46.2L453.8,500L315.2,638.6c-12.8,12.8-12.8,33.4,0,46.2c12.8,12.8,33.4,12.8,46.2,0L500,546.2l138.6,138.6c12.8,12.8,33.4,12.8,46.2,0c12.8-12.8,12.8-33.4,0-46.2L546.2,500l138.6-138.6C697.5,348.6,697.5,328,684.8,315.2z M500,10C229.4,10,10,229.4,10,500c0,270.6,219.4,490,490,490c270.6,0,490-219.4,490-490C990,229.4,770.6,10,500,10z M500,924.7C265.5,924.7,75.3,734.5,75.3,500C75.3,265.5,265.5,75.3,500,75.3c234.5,0,424.7,190.1,424.7,424.7C924.7,734.5,734.5,924.7,500,924.7z"/></g>
</svg>